<svg xmlns="http://www.w3.org/2000/svg" version="1.1" xmlns:xlink="http://www.w3.org/1999/xlink" xmlns:svgjs="http://svgjs.dev/svgjs" width="2000" height="1109" viewBox="0 0 2000 1109"><g transform="matrix(1,0,0,1,0.21333333333336668,-0.9211759211538038)"><svg viewBox="0 0 375 208" data-background-color="#ffffff" preserveAspectRatio="xMidYMid meet" height="1109" width="2000" xmlns="http://www.w3.org/2000/svg" xmlns:xlink="http://www.w3.org/1999/xlink"><g id="tight-bounds" transform="matrix(1,0,0,1,-0.03976000000000113,0.17308240000001263)"><svg viewBox="0 0 375.07953 207.6541452" height="207.6541452" width="375.07953"><g><svg></svg></g><g><svg viewBox="0 0 375.07953 207.6541452" height="207.6541452" width="375.07953"><g transform="matrix(1,0,0,1,-10.22024,-23.546310000000005)"><path d="M10.22 223.654v-200.108h375.08v200.108h-15.287l0-4.681h10.606v-190.746h-365.718v190.746l24.088 0 0 4.681z" fill="#000000" fill-rule="nonzero" stroke="none" stroke-width="1" stroke-linecap="butt" stroke-linejoin="miter" stroke-miterlimit="10" stroke-dasharray="" stroke-dashoffset="0" font-family="none" font-weight="none" font-size="none" text-anchor="none" style="mix-blend-mode: normal" data-fill-palette-color="tertiary"></path><g><path transform="translate(51.23358,226.26067) scale(0.44948,0.44948)" d="M7.71-24.46v20.65h7.87v-20.65zM19.48 0h-15.48v-27.98h15.48zM31.2 10.99v-10.99h11.77v-22.02h-15.48v33.01zM31.2-3.52v-14.89l7.86 0.05v14.84zM64.45-3.52v3.52h-8.98v-18.51h-4.49v-3.51h4.49v-6.5h3.71v6.5h5.27v3.51h-5.27v14.99zM76.17-22.02l-3.71 0.05v21.97h3.71zM76.17-33.01h-3.71v6.5h3.71zM99.61-18.51v18.51h-4v-18.51h-7.77v18.51h-3.71v-22.02h27v22.02h-3.9v-18.51zM122.8-22.02l-3.71 0.05v21.97h3.71zM122.8-33.01h-3.71v6.5h3.71zM146.24-18.21l-10.6 14.69h10.21v3.52h-15.09v-3.52l11.57-14.84h-11.57v-3.66h15.48zM157.96-22.02l-3.71 0.05v21.97h3.71zM157.96-33.01h-3.71v6.5h3.71zM177.49 0h3.91v-22.02h-15.48v22.02h3.71v-18.51h7.86zM189.5 0h11.48v5.52h-11.58v3.46h15.48v-31h-15.38zM200.98-18.41v14.8h-7.86v-14.8zM234.77-22.02h4.59l-6.01 22.02h-6.98l-6.01-22.02h4.98l4.01 18.5h1.41zM248.54-22.02l-3.72 0.05v21.97h3.72zM248.54-33.01h-3.72v6.5h3.72zM268.07-3.66h-7.86v-1.86h-3.72v5.52l15.39-0.05v-11.28l-11.48-2.68v-4.35h7.91v4.35h3.66v-8.01h-15.48v11.52l11.58 2.69zM283.69-22.02l-3.71 0.05v21.97h3.71zM283.69-33.01h-3.71v6.5h3.71zM295.36-33.01v10.99h11.77v22.02h-15.48v-33.01zM295.36-18.51v14.9l7.86-0.05v-14.85zM318.85-22.02l-3.71 0.05v21.97h3.71zM318.85-33.01h-3.71v6.5h3.71zM330.52-33.01h-3.71v33.01h3.71zM342.19-22.02l-3.71 0.05v21.97h3.71zM342.19-33.01h-3.71v6.5h3.71zM363.62-3.52v3.52h-8.98v-18.51h-4.49v-3.51h4.49v-6.5h3.71v6.5h5.27v3.51h-5.27v14.99zM383.2-22.02h3.91v31h-15.48v-3.46h11.57v-5.52h-11.47v-22.02h3.61v18.41h7.86zM405.08-18.51v-3.46h4.78v-9.52h10.7v3.46h-6.99v6.06h6.99v3.46h-6.99v18.51h-3.71v-18.51zM444.04 0h-15.48v-22.02h15.48zM440.38-3.52v-14.89l-7.91 0.05v14.84zM461.33-14.01v-4.4l-5.37 0.05v18.36h-3.91v-22.02h12.99v8.01zM493.55-22.02h3.91v31h-15.48v-3.46h11.57v-5.52h-11.47v-22.02h3.61v18.41h7.86zM520.95 0h-15.48v-22.02h15.48zM517.29-3.52v-14.89l-7.91 0.05v14.84zM540.53-22.02h3.9v22.02h-15.47v-22.02h3.71v18.5h7.86zM561.72-14.01v-4.4l-5.37 0.05v18.36h-3.91v-22.02h12.99v8.01zM582.37-18.51v-3.46h4.79v-9.52h10.69v3.46h-6.98v6.06h6.98v3.46h-6.98v18.51h-3.71v-18.51zM609.57-33.01h-3.71v33.01h3.71zM632.91-8.98h-11.47v5.46h11.57v3.52h-15.48v-22.02h15.38zM621.44-18.41v5.81h7.91v-5.81zM656.4-8.98h-11.48v5.46h11.57v3.52h-15.47v-22.02h15.38zM644.92-18.41v5.81h7.91v-5.81zM677.98-3.52v3.52h-8.99v-18.51h-4.49v-3.51h4.49v-6.5h3.72v6.5h5.27v3.51h-5.27v14.99z" fill="#000000" fill-rule="nonzero" stroke="none" stroke-width="1" stroke-linecap="butt" stroke-linejoin="miter" stroke-miterlimit="10" stroke-dasharray="" stroke-dashoffset="0" font-family="none" font-weight="none" font-size="none" text-anchor="none" style="mix-blend-mode: normal" data-fill-palette-color="secondary" id="text-1"></path></g></g><g transform="matrix(1,0,0,1,29.33176499999999,67.9602637794846)"><svg viewBox="0 0 316.416 71.73361764103078" height="71.73361764103078" width="316.416"><g><svg viewBox="0 0 430.7518131991067 97.65430909374189" height="71.73361764103078" width="316.416"><g transform="matrix(1,0,0,1,114.33581319910672,13.496362544793563)"><svg viewBox="0 0 316.416 70.66158400415476" height="70.66158400415476" width="316.416"><g id="textblocktransform"><svg viewBox="0 0 316.416 70.66158400415476" height="70.66158400415476" width="316.416" id="textblock"><g><svg viewBox="0 0 316.416 70.66158400415476" height="70.66158400415476" width="316.416"><g transform="matrix(1,0,0,1,0,0)"><svg width="316.416" viewBox="4 -33.01 188.02 41.99" height="70.66158400415476" data-palette-color="#000000"><path d="M7.71-3.81L19.48-3.81 19.48 0 4 0 4-27.98 19.48-28.03 19.48-24.51 7.71-24.51 7.71-18.46 19.48-18.46 19.48-14.94 7.71-14.94 7.71-3.81ZM39.06 0L42.97 0 42.97-22.02 27.49-22.02 27.49 0 31.2 0 31.2-18.51 39.06-18.51 39.06 0ZM51.07 0L62.54 0 62.54 5.52 50.97 5.52 50.97 8.98 66.45 8.98 66.45-22.02 51.07-22.02 51.07 0ZM62.54-18.41L62.54-3.61 54.68-3.61 54.68-18.41 62.54-18.41ZM78.17-22.02L74.46-21.97 74.46 0 78.17 0 78.17-22.02ZM78.17-33.01L74.46-33.01 74.46-26.51 78.17-26.51 78.17-33.01ZM97.7 0L101.6 0 101.6-22.02 86.12-22.02 86.12 0 89.83 0 89.83-18.51 97.7-18.51 97.7 0ZM119.32-24.41L119.32 0 115.61 0 115.61-24.41 109.56-24.41 109.56-27.98 125.09-27.98 125.09-24.41 119.32-24.41ZM142.37-14.01L142.37-18.41 137-18.36 137 0 133.09 0 133.09-22.02 146.08-22.02 146.08-14.01 142.37-14.01ZM153.16-12.99L164.63-12.99 164.63-18.51 153.06-18.51 153.06-22.02 168.54-22.02 168.54 0 153.16 0 153.16-12.99ZM164.63-3.61L164.63-9.42 156.77-9.42 156.77-3.61 164.63-3.61ZM188.36-14.01L188.36-18.36 180.45-18.36 180.45-3.52 191.63-3.52 191.63 0 176.54 0 176.54-22.02 192.02-22.02 192.02-14.01 188.36-14.01Z" opacity="1" transform="matrix(1,0,0,1,0,0)" fill="#000000" class="wordmark-text-0" data-fill-palette-color="primary" id="text-0"></path></svg></g></svg></g></svg></g></svg></g><g><svg viewBox="0 0 97.65430909374189 97.65430909374189" height="97.65430909374189" width="97.65430909374189"><g><svg xmlns="http://www.w3.org/2000/svg" xml:space="preserve" viewBox="1 1 62 62" x="0" y="0" height="97.65430909374189" width="97.65430909374189" class="icon-icon-0" data-fill-palette-color="accent" id="icon-0"><circle cx="32" cy="6" r="1.0" fill="#000000" data-fill-palette-color="accent"></circle><path d="M16.444 13.444a0.999 0.999 0 1 0-0.707-1.707 0.999 0.999 0 0 0 0.707 1.707" fill="#000000" data-fill-palette-color="accent"></path><circle cx="10" cy="28" r="1.0" fill="#000000" data-fill-palette-color="accent"></circle><path d="M16.444 42.556a0.999 0.999 0 1 0 0.707 1.707 0.999 0.999 0 0 0-0.707-1.707M47.556 42.556a0.999 0.999 0 1 0 0.707 1.707 0.999 0.999 0 0 0-0.707-1.707" fill="#000000" data-fill-palette-color="accent"></path><circle cx="54" cy="28" r="1.0" fill="#000000" data-fill-palette-color="accent"></circle><path d="M47.556 13.444a0.999 0.999 0 1 0-0.707-1.707 0.999 0.999 0 0 0 0.707 1.707M32 13c-8.271 0-15 6.729-15 15s6.729 15 15 15 15-6.729 15-15-6.729-15-15-15m12.949 16a13 13 0 0 1-0.952 4h-7.098A5 5 0 0 0 35 30.026V22c0-1.654-1.346-3-3-3s-3 1.346-3 3v8.026A5 5 0 0 0 27.101 33h-7.098a12.9 12.9 0 0 1-0.952-4H21v-2h-1.949a12.93 12.93 0 0 1 3.088-7.447l1.376 1.376 1.414-1.414-1.376-1.376A12.93 12.93 0 0 1 31 15.051V17h2v-1.949a12.93 12.93 0 0 1 7.447 3.088l-1.376 1.376 1.414 1.414 1.376-1.376A12.93 12.93 0 0 1 44.949 27H43v2zM33 29.101a5 5 0 0 0-2 0V22a1 1 0 0 1 2 0zM32 31c1.654 0 3 1.346 3 3s-1.346 3-3 3-3-1.346-3-3 1.346-3 3-3m0 10c-4.59 0-8.623-2.398-10.937-6h6.038c0.465 2.279 2.484 4 4.899 4s4.434-1.721 4.899-4h6.038C40.623 38.602 36.59 41 32 41" fill="#000000" data-fill-palette-color="accent"></path><path d="M57 43v18h-2V51h-6v10h-2v-6h-6v6h-6v-6h4v-3.089c0-1.165 0.697-2.206 1.825-2.672a2.865 2.865 0 0 1 3.133 0.618l2.185 2.184 9.898-9.898-2.184-2.185c-0.824-0.824-1.066-2.054-0.597-3.183A2.86 2.86 0 0 1 55.911 35H59V21h-3.089c-1.165 0-2.206-0.697-2.672-1.825a2.86 2.86 0 0 1 0.618-3.133l2.184-2.185-9.898-9.898-2.185 2.184c-0.824 0.825-2.053 1.066-3.183 0.597A2.86 2.86 0 0 1 39 4.089V1H25v3.089c0 1.165-0.697 2.206-1.825 2.672a2.865 2.865 0 0 1-3.133-0.618l-2.185-2.184-9.898 9.898 2.184 2.185c0.824 0.824 1.066 2.054 0.597 3.183A2.86 2.86 0 0 1 8.089 21H5v14h3.089c1.165 0 2.206 0.697 2.672 1.825a2.86 2.86 0 0 1-0.618 3.133l-2.184 2.185L17 51.184V61h-2V51H9v10H7V45H1v18h62V43zM5 61H3V47h2z m46-8h2v8h-2z m-8 4h2v4h-2z m-20-7.814c0.075 0.025 0.15 0.044 0.225 0.075A2.86 2.86 0 0 1 25 51.911V55h4v6h-6zM32 45c-9.374 0-17-7.626-17-17s7.626-17 17-17 17 7.626 17 17-7.626 17-17 17m-1 1.949c0.333 0.018 0.662 0.051 1 0.051s0.667-0.033 1-0.051V61h-2z m-19.443-5.577c1.398-1.398 1.812-3.484 1.032-5.358A4.85 4.85 0 0 0 8.089 33H7V23h1.089c1.979 0 3.745-1.183 4.52-3.058a4.855 4.855 0 0 0-1.052-5.314l-0.77-0.771 7.07-7.07 0.771 0.77c1.398 1.397 3.484 1.811 5.358 1.032A4.85 4.85 0 0 0 27 4.089V3h10v1.089c0 1.979 1.183 3.745 3.058 4.52a4.855 4.855 0 0 0 5.314-1.052l0.771-0.77 7.07 7.07-0.77 0.771c-1.398 1.398-1.812 3.484-1.032 5.358a4.85 4.85 0 0 0 4.5 3.014H57v10h-1.089c-1.979 0-3.745 1.183-4.52 3.058a4.855 4.855 0 0 0 1.052 5.314l0.77 0.771-7.07 7.07-0.771-0.77c-1.398-1.398-3.483-1.811-5.358-1.032a4.85 4.85 0 0 0-3.014 4.5V53h-2v-6.261C44.053 45.294 51 37.453 51 28c0-10.477-8.523-19-19-19s-19 8.523-19 19c0 9.453 6.947 17.294 16 18.739V53h-2v-1.089c0-1.979-1.183-3.745-3.058-4.52a4.86 4.86 0 0 0-5.314 1.052l-0.771 0.77-7.07-7.07zM19 50.899l1.042-1.042c0.279-0.279 0.606-0.485 0.958-0.626V61h-2zM11 53h2v8h-2z m50 8h-2V45h2z" fill="#000000" data-fill-palette-color="accent"></path></svg></g></svg></g></svg></g></svg></g></svg></g><defs></defs></svg><rect width="375.07953" height="207.6541452" fill="none" stroke="none" visibility="hidden"></rect></g></svg></g></svg>